<svg xmlns="http://www.w3.org/2000/svg" xmlns:xlink="http://www.w3.org/1999/xlink" viewBox="0,0,256,256" width="512px" height="512px"><g transform="translate(64,64) scale(0.5,0.5)"><g fill="#757575" fill-rule="nonzero" stroke="none" stroke-width="1" stroke-linecap="butt" stroke-linejoin="miter" stroke-miterlimit="10" stroke-dasharray="" stroke-dashoffset="0" font-family="none" font-weight="none" font-size="none" text-anchor="none" style="mix-blend-mode: normal"><g transform="translate(-91.08181,-105.6) scale(3.2,3.2)"><path d="M40.60938,7c-18.21875,0 -33.00781,14.78516 -33.00781,33c0,18.21484 14.78906,33 33.00781,33c13.51172,0 22.11328,-6.52734 26.82813,-14.61328c4.71484,-8.08984 5.69141,-17.65625 4.3125,-24.18359l-0.16797,-0.79687l-31.97266,-0.04297v14.23047h16.85547c-2.46484,6.30469 -7.86719,10.70703 -15.85547,10.70703c-10.125,0 -18.30859,-8.17969 -18.30859,-18.30078c0,-10.12109 8.18359,-18.30078 18.30859,-18.30078c4.54688,0 8.6875,1.66406 11.89063,4.41016l0.70313,0.59766l10.40625,-10.39844l-0.77734,-0.70312c-5.86328,-5.34375 -13.66797,-8.60547 -22.22266,-8.60547zM40.60938,9c7.66797,0 14.625,2.83984 20.03516,7.44141l-7.60156,7.60156c-3.44141,-2.6875 -7.73437,-4.34375 -12.43359,-4.34375c-11.20312,0 -20.30859,9.09766 -20.30859,20.30078c0,11.20313 9.10156,20.30078 20.30859,20.30078c9.34766,0 15.98828,-5.64844 18.375,-13.41406l0.39844,-1.29297h-17.77344v-10.22656l28.26563,0.03906c1.03906,5.94922 0.08594,14.67969 -4.16797,21.96875c-4.42578,7.59375 -12.21875,13.625 -25.09766,13.625c-17.13672,0 -31.00781,-13.86719 -31.00781,-31c0,-17.13281 13.87109,-31 31.00781,-31zM40,12c-0.55078,0 -1,0.44922 -1,1c0,0.55078 0.44922,1 1,1c0.55078,0 1,-0.44922 1,-1c0,-0.55078 -0.44922,-1 -1,-1zM45.29297,12.51563c-0.48828,-0.01172 -0.91016,0.32813 -1.00781,0.80859c-0.10547,0.53906 0.24609,1.06641 0.78906,1.17578c0.53906,0.10547 1.06641,-0.24609 1.17578,-0.78516c0.10547,-0.54297 -0.24609,-1.07031 -0.78516,-1.17969c-0.05859,-0.00781 -0.11328,-0.01562 -0.17187,-0.01953zM34.73828,12.51953c-0.06641,0 -0.13281,0.00391 -0.19922,0.01563c-0.54297,0.10938 -0.89453,0.63672 -0.78516,1.17969c0.05078,0.25781 0.20313,0.48828 0.42578,0.63672c0.21875,0.14453 0.48828,0.19922 0.75,0.14844c0.54297,-0.10937 0.89453,-0.63281 0.78516,-1.17578c-0.09375,-0.46484 -0.5,-0.80078 -0.97656,-0.80469zM29.67578,14.05469c-0.13281,0 -0.26562,0.02344 -0.39062,0.07422c-0.51172,0.21484 -0.75391,0.79688 -0.53906,1.30859c0.21094,0.51172 0.79297,0.75391 1.30469,0.54297c0.51172,-0.21484 0.75391,-0.79687 0.54297,-1.30859c-0.15625,-0.37109 -0.51562,-0.61328 -0.91797,-0.61719zM50.35547,14.05469c-0.41406,-0.00781 -0.78906,0.23438 -0.94922,0.61719c-0.21094,0.51172 0.03125,1.09375 0.54297,1.30859c0.51172,0.21094 1.09375,-0.03125 1.30469,-0.54297c0.21484,-0.51172 -0.02734,-1.09375 -0.53906,-1.30859c-0.11328,-0.04687 -0.23828,-0.07031 -0.35937,-0.07422zM25.01172,16.54688c-0.20312,0 -0.40234,0.05859 -0.57031,0.17188c-0.45703,0.30469 -0.58203,0.92578 -0.27344,1.38672c0.30469,0.45703 0.92578,0.58203 1.38672,0.27344c0.46094,-0.30469 0.58203,-0.92578 0.27734,-1.38281c-0.18359,-0.27734 -0.49219,-0.44531 -0.82031,-0.44922zM55.01563,16.54688c-0.33984,-0.00391 -0.66016,0.16406 -0.84766,0.44922c-0.30859,0.45703 -0.18359,1.07813 0.27344,1.38281c0.46094,0.30859 1.08203,0.18359 1.38672,-0.27344c0.14844,-0.21875 0.20313,-0.49219 0.15234,-0.75c-0.05078,-0.26172 -0.20312,-0.49219 -0.42578,-0.63672c-0.16016,-0.10937 -0.34375,-0.16797 -0.53906,-0.17187zM20.92188,19.90625c-0.26953,0 -0.53125,0.10547 -0.71875,0.29688c-0.39062,0.38672 -0.39062,1.02344 0,1.41016c0.38672,0.39063 1.02344,0.39063 1.41016,0c0.39063,-0.38672 0.39063,-1.02344 0,-1.41016c-0.18359,-0.1875 -0.42969,-0.29297 -0.69141,-0.29687zM17.56641,24c-0.33984,-0.00781 -0.66016,0.16016 -0.84766,0.44141c-0.30469,0.46094 -0.18359,1.08203 0.27734,1.38672c0.46094,0.30859 1.07813,0.18359 1.38672,-0.27344c0.30469,-0.46094 0.18359,-1.08203 -0.27734,-1.38672c-0.16016,-0.10547 -0.34375,-0.16406 -0.53906,-0.16797zM15.07813,28.66797c-0.41406,-0.00781 -0.78906,0.23438 -0.94531,0.61719c-0.21094,0.51172 0.03125,1.09375 0.53906,1.30859c0.51172,0.21094 1.09766,-0.03125 1.30859,-0.54297c0.21094,-0.51172 -0.03125,-1.09375 -0.54297,-1.30469c-0.11328,-0.05078 -0.23437,-0.07422 -0.35937,-0.07812zM13.54688,33.73438c-0.48828,-0.01172 -0.91016,0.32422 -1.00781,0.80078c-0.05078,0.26172 0,0.53516 0.14844,0.75391c0.14844,0.22266 0.37891,0.375 0.64063,0.42578c0.25781,0.05078 0.52734,-0.00391 0.75,-0.14844c0.21875,-0.14844 0.37109,-0.37891 0.42188,-0.64062c0.10938,-0.53906 -0.24219,-1.06641 -0.78125,-1.17578c-0.05859,-0.00781 -0.11328,-0.01562 -0.17187,-0.01562zM13,39c-0.55078,0 -1,0.44922 -1,1c0,0.55078 0.44922,1 1,1c0.55078,0 1,-0.44922 1,-1c0,-0.55078 -0.44922,-1 -1,-1zM47,39c-0.55078,0 -1,0.44922 -1,1c0,0.55078 0.44922,1 1,1c0.55078,0 1,-0.44922 1,-1c0,-0.55078 -0.44922,-1 -1,-1zM52,39c-0.55078,0 -1,0.44922 -1,1c0,0.55078 0.44922,1 1,1c0.55078,0 1,-0.44922 1,-1c0,-0.55078 -0.44922,-1 -1,-1zM57,39c-0.55078,0 -1,0.44922 -1,1c0,0.55078 0.44922,1 1,1c0.55078,0 1,-0.44922 1,-1c0,-0.55078 -0.44922,-1 -1,-1zM62,39c-0.55078,0 -1,0.44922 -1,1c0,0.55078 0.44922,1 1,1c0.55078,0 1,-0.44922 1,-1c0,-0.55078 -0.44922,-1 -1,-1zM67,39c-0.55078,0 -1,0.44922 -1,1c0,0.55078 0.44922,1 1,1c0.55078,0 1,-0.44922 1,-1c0,-0.55078 -0.44922,-1 -1,-1zM13.52344,44.26563c-0.06641,0 -0.13281,0.00781 -0.19922,0.01953c-0.54297,0.10938 -0.89453,0.63672 -0.78516,1.17969c0.10938,0.53906 0.63281,0.89063 1.17578,0.78516c0.54297,-0.10937 0.89453,-0.63672 0.78516,-1.17578c-0.09375,-0.46875 -0.5,-0.80469 -0.97656,-0.80859zM66.50781,44.26563c-0.48828,-0.01172 -0.91016,0.32813 -1.00781,0.80859c-0.10547,0.53906 0.24609,1.06641 0.78516,1.17578c0.54297,0.10547 1.07031,-0.24609 1.17969,-0.78516c0.10547,-0.54297 -0.24609,-1.07031 -0.78906,-1.17969c-0.05469,-0.00781 -0.10937,-0.01562 -0.16797,-0.01953zM64.96875,49.32813c-0.41406,-0.00781 -0.78906,0.23828 -0.94922,0.62109c-0.21094,0.50781 0.03125,1.09375 0.54297,1.30469c0.51172,0.21094 1.09375,-0.03125 1.30859,-0.53906c0.21094,-0.51172 -0.03125,-1.09766 -0.54297,-1.30859c-0.11328,-0.04687 -0.23828,-0.07422 -0.35937,-0.07812zM15.0625,49.33203c-0.13281,0 -0.26562,0.02344 -0.39062,0.07422c-0.24219,0.10156 -0.4375,0.29688 -0.53906,0.54297c-0.10156,0.24609 -0.10156,0.51953 -0.00391,0.76563c0.21484,0.51172 0.79688,0.75391 1.30859,0.53906c0.24609,-0.09766 0.44141,-0.29297 0.54297,-0.53906c0.10156,-0.24609 0.10156,-0.51953 0,-0.76562c-0.15234,-0.37109 -0.51562,-0.61328 -0.91797,-0.61719zM62.46875,54c-0.33984,-0.00781 -0.66016,0.16016 -0.84766,0.44141c-0.30859,0.46094 -0.18359,1.07813 0.27344,1.38672c0.21875,0.14844 0.49219,0.20313 0.75,0.14844c0.26172,-0.05078 0.49219,-0.20312 0.63672,-0.42578c0.30859,-0.45703 0.18359,-1.07812 -0.27734,-1.38281c-0.15625,-0.10937 -0.34375,-0.16797 -0.53516,-0.16797zM17.5625,54c-0.20312,-0.00391 -0.39844,0.05469 -0.56641,0.16797c-0.45703,0.30859 -0.58203,0.92578 -0.27734,1.38672c0.30859,0.45703 0.92969,0.58203 1.39063,0.27344c0.45703,-0.30469 0.58203,-0.92578 0.27344,-1.38672c-0.18359,-0.27344 -0.49219,-0.4375 -0.82031,-0.44141zM20.92188,58.09375c-0.26953,-0.00391 -0.53125,0.10156 -0.71875,0.29297c-0.39062,0.38672 -0.39062,1.02344 0,1.41016c0.38672,0.39063 1.02344,0.39063 1.41016,0c0.39063,-0.38672 0.39063,-1.02344 0,-1.41016c-0.18359,-0.1875 -0.42969,-0.29297 -0.69141,-0.29297zM59.10547,58.09375c-0.26953,-0.00391 -0.53125,0.10156 -0.71875,0.29297c-0.39062,0.38672 -0.39062,1.02344 0,1.41016c0.38672,0.39063 1.02344,0.39063 1.41016,0c0.39063,-0.38672 0.39063,-1.02344 0,-1.41016c-0.18359,-0.1875 -0.42969,-0.29297 -0.69141,-0.29297zM25.01953,61.44922c-0.33984,-0.00781 -0.66016,0.16016 -0.84766,0.44141c-0.30859,0.46094 -0.18359,1.08203 0.27734,1.39063c0.45703,0.30469 1.07813,0.17969 1.38281,-0.27734c0.30859,-0.46094 0.18359,-1.07812 -0.27344,-1.38672c-0.16016,-0.10547 -0.34766,-0.16797 -0.53906,-0.16797zM55.01172,61.44922c-0.20312,-0.00391 -0.39844,0.05469 -0.56641,0.16406c-0.22266,0.14844 -0.375,0.37891 -0.42578,0.64063c-0.05078,0.25781 0.00391,0.53125 0.15234,0.75c0.30469,0.45703 0.92578,0.58203 1.38672,0.27734c0.45703,-0.30859 0.58203,-0.92969 0.27344,-1.39062c-0.17969,-0.27344 -0.48828,-0.44141 -0.82031,-0.44141zM29.69141,63.94141c-0.41406,-0.00781 -0.78906,0.23828 -0.94531,0.62109c-0.21094,0.50781 0.03125,1.09375 0.53906,1.30469c0.51172,0.21094 1.09766,-0.03125 1.30859,-0.53906c0.21094,-0.51172 -0.03125,-1.09766 -0.54297,-1.30859c-0.11328,-0.04687 -0.23437,-0.07422 -0.35937,-0.07812zM50.33984,63.94141c-0.13281,0 -0.26562,0.02734 -0.38672,0.07813c-0.24609,0.10156 -0.44141,0.29688 -0.54297,0.53906c-0.10156,0.24609 -0.10156,0.52344 -0.00391,0.76953c0.21484,0.50781 0.79688,0.75 1.30859,0.53906c0.24609,-0.10156 0.44141,-0.29687 0.54297,-0.53906c0.10156,-0.24609 0.10156,-0.52344 0,-0.76562c-0.15234,-0.375 -0.51562,-0.61719 -0.91797,-0.62109zM34.76172,65.48047c-0.48828,-0.01172 -0.91406,0.32813 -1.00781,0.80469c-0.10937,0.54297 0.24219,1.06641 0.78516,1.17578c0.54297,0.10938 1.06641,-0.24219 1.17578,-0.78516c0.10938,-0.54297 -0.24219,-1.06641 -0.78516,-1.17578c-0.05469,-0.01172 -0.11328,-0.01953 -0.16797,-0.01953zM45.26953,65.48438c-0.06641,-0.00391 -0.13281,0.00391 -0.19531,0.01563c-0.54297,0.10938 -0.89453,0.63281 -0.78906,1.17578c0.05469,0.26172 0.20703,0.48828 0.42578,0.63672c0.22266,0.14844 0.49219,0.20313 0.75391,0.15234c0.25781,-0.05469 0.48828,-0.20703 0.63672,-0.42578c0.14453,-0.22266 0.19922,-0.49219 0.14844,-0.75391c-0.09375,-0.46484 -0.50391,-0.80078 -0.98047,-0.80078zM40,66c-0.55078,0 -1,0.44922 -1,1c0,0.55078 0.44922,1 1,1c0.55078,0 1,-0.44922 1,-1c0,-0.55078 -0.44922,-1 -1,-1z"></path></g></g><g fill="#9d9b9b" fill-rule="nonzero" stroke="none" stroke-width="1" stroke-linecap="butt" stroke-linejoin="miter" stroke-miterlimit="10" stroke-dasharray="" stroke-dashoffset="0" font-family="none" font-weight="none" font-size="none" text-anchor="none" style="mix-blend-mode: normal"><g><path d="M100.74176,230.66737l-4.54,29.15c-2.66667,3.75333 -6.54,6.64333 -11.62,8.67c-5.08667,2.02 -10.89333,2.99333 -17.42,2.92v0c-5.21333,-0.10667 -9.77,-1.32667 -13.67,-3.66c-3.90667,-2.33333 -6.97,-5.68 -9.19,-10.04c-2.22667,-4.35333 -3.50333,-9.3 -3.83,-14.84v0c-0.25333,-4.34 0.28333,-10.21 1.61,-17.61c1.33333,-7.4 3.66,-13.8 6.98,-19.2c3.31333,-5.39333 7.46,-9.51333 12.44,-12.36c4.97333,-2.84 10.67,-4.20667 17.09,-4.1v0c7.4,0.14667 13.29667,2.34333 17.69,6.59c4.39333,4.24667 6.9,10.21667 7.52,17.91v0h-10.17c-0.40667,-5.03333 -1.92,-8.89667 -4.54,-11.59c-2.62667,-2.7 -6.25667,-4.12333 -10.89,-4.27v0c-6.85333,-0.25333 -12.58333,2.20667 -17.19,7.38c-4.61333,5.18 -7.65,12.74667 -9.11,22.7v0l-1.04,7.66l-0.16,4.15c0,7.18667 1.47667,12.73667 4.43,16.65c2.95333,3.92 7.09,5.91667 12.41,5.99v0c7.69333,0.18667 13.8,-1.70667 18.32,-5.68v0l3.28,-17.89h-17.94l1.54,-8.53zM142.57176,210.04737v0c4.96,0.07333 9.20667,1.42333 12.74,4.05c3.54,2.62667 6.15667,6.24667 7.85,10.86c1.69333,4.60667 2.26667,9.64667 1.72,15.12v0l-0.11,1.2c-0.68667,5.76 -2.4,10.96333 -5.14,15.61c-2.73333,4.65333 -6.27,8.27333 -10.61,10.86c-4.33333,2.58667 -9.09,3.80667 -14.27,3.66v0c-4.92,-0.07333 -9.15667,-1.42 -12.71,-4.04c-3.56,-2.62667 -6.16,-6.2 -7.8,-10.72c-1.64,-4.52 -2.22333,-9.49667 -1.75,-14.93v0c0.54667,-6.12667 2.20667,-11.63333 4.98,-16.52c2.77333,-4.88667 6.33667,-8.66667 10.69,-11.34c4.36,-2.68 9.16333,-3.95 14.41,-3.81zM122.56176,240.51737l-0.11,1.25c-0.26,2.3 -0.26,4.69 0,7.17v0c0.36,4.3 1.64333,7.72667 3.85,10.28c2.20667,2.55333 5.15,3.88333 8.83,3.99v0c3.28667,0.10667 6.31333,-0.70333 9.08,-2.43c2.77333,-1.73333 5.10667,-4.35 7,-7.85c1.9,-3.5 3.12333,-7.38333 3.67,-11.65v0c0.28667,-3.35333 0.34,-6.18 0.16,-8.48v0c-0.44,-4.40667 -1.77,-7.88667 -3.99,-10.44c-2.22667,-2.55333 -5.18,-3.90333 -8.86,-4.05v0c-5.10667,-0.10667 -9.44667,1.9 -13.02,6.02c-3.57333,4.12 -5.77667,9.51667 -6.61,16.19zM205.08176,210.04737v0c4.96,0.07333 9.20667,1.42333 12.74,4.05c3.54,2.62667 6.15667,6.24667 7.85,10.86c1.69333,4.60667 2.26667,9.64667 1.72,15.12v0l-0.11,1.2c-0.69333,5.76 -2.40667,10.96333 -5.14,15.61c-2.73333,4.65333 -6.27,8.27333 -10.61,10.86c-4.34,2.58667 -9.09667,3.80667 -14.27,3.66v0c-4.92,-0.07333 -9.16,-1.42 -12.72,-4.04c-3.55333,-2.62667 -6.15,-6.2 -7.79,-10.72c-1.64,-4.52 -2.22333,-9.49667 -1.75,-14.93v0c0.54667,-6.12667 2.20667,-11.63333 4.98,-16.52c2.76667,-4.88667 6.33,-8.66667 10.69,-11.34c4.35333,-2.68 9.15667,-3.95 14.41,-3.81zM185.06176,240.51737l-0.11,1.25c-0.25333,2.3 -0.25333,4.69 0,7.17v0c0.36667,4.3 1.65333,7.72667 3.86,10.28c2.20667,2.55333 5.15,3.88333 8.83,3.99v0c3.28,0.10667 6.30667,-0.70333 9.08,-2.43c2.77333,-1.73333 5.10667,-4.35 7,-7.85c1.89333,-3.5 3.11333,-7.38333 3.66,-11.65v0c0.29333,-3.35333 0.35,-6.18 0.17,-8.48v0c-0.44,-4.40667 -1.77,-7.88667 -3.99,-10.44c-2.22667,-2.55333 -5.18,-3.90333 -8.86,-4.05v0c-5.10667,-0.10667 -9.44667,1.9 -13.02,6.02c-3.57333,4.12 -5.78,9.51667 -6.62,16.19zM237.62176,240.61737v0c0.87333,-6.44667 2.61333,-12.05 5.22,-16.81c2.60667,-4.76 5.78,-8.28 9.52,-10.56c3.73333,-2.27333 7.82333,-3.35667 12.27,-3.25v0c6.86,0.14667 12.04,2.73667 15.54,7.77v0l1.96,-6.62h9.08l-9.84,57.91c-1.06,7.54667 -4.12333,13.59 -9.19,18.13c-5.06667,4.54 -11.32,6.7 -18.76,6.48v0c-4.00667,-0.07333 -7.84333,-1.02 -11.51,-2.84c-3.66,-1.82667 -6.55,-4.32333 -8.67,-7.49v0l5.64,-6.07c3.57333,5.28667 8.29333,8 14.16,8.14v0c4.70667,0.14667 8.69,-1.16333 11.95,-3.93c3.26,-2.77333 5.42,-6.71333 6.48,-11.82v0l1.09,-5.25c-4.80667,4.81333 -10.43667,7.14667 -16.89,7v0c-3.68667,-0.10667 -6.88667,-1.1 -9.6,-2.98c-2.72,-1.87333 -4.82667,-4.59 -6.32,-8.15c-1.49333,-3.55333 -2.31333,-7.51667 -2.46,-11.89v0c-0.07333,-2.15333 0.03667,-4.74333 0.33,-7.77zM247.30176,243.46737l-0.11,2.79c-0.11333,5.21333 0.79,9.25 2.71,12.11c1.91333,2.86 4.8,4.36333 8.66,4.51v0c5.90667,0.14667 10.99333,-2.75 15.26,-8.69v0l4.65,-27.18c-2.18667,-5.4 -6.14333,-8.20667 -11.87,-8.42v0c-5.36,-0.14667 -9.76,2.04 -13.2,6.56c-3.44667,4.52 -5.48,10.62667 -6.1,18.32zM321.56176,186.31737l-14.6,84h-9.84l14.55,-84zM348.74176,271.40737v0c-7.36,-0.14 -13.12,-2.85333 -17.28,-8.14c-4.15333,-5.28667 -5.90333,-12.05 -5.25,-20.29v0l0.28,-2.36c0.62,-5.86667 2.36,-11.22333 5.22,-16.07c2.86,-4.85333 6.35,-8.51 10.47,-10.97c4.12,-2.46 8.56667,-3.63667 13.34,-3.53v0c6.09333,0.14667 10.87,2.17 14.33,6.07c3.46667,3.90667 5.36333,9.19333 5.69,15.86v0c0.10667,2.37333 0.03333,4.74333 -0.22,7.11v0l-0.6,4.54h-38.66c-0.66,5.36 0.22333,9.91667 2.65,13.67c2.42667,3.76 6.04333,5.71333 10.85,5.86v0c5.83333,0.14 11.23,-2.48667 16.19,-7.88v0l5.69,4.81c-2.48,3.57333 -5.68,6.37333 -9.6,8.4c-3.92,2.02 -8.28667,2.99333 -13.1,2.92zM355.03176,218.30737v0c-4.08,-0.10667 -7.64333,1.28 -10.69,4.16c-3.04667,2.88 -5.46,7.16333 -7.24,12.85v0l28.76,0.05l0.22,-0.87c0.58,-4.59333 -0.16,-8.41333 -2.22,-11.46c-2.06,-3.04 -5.00333,-4.61667 -8.83,-4.73z"></path></g></g></g></svg>