<svg xmlns="http://www.w3.org/2000/svg" xmlns:xlink="http://www.w3.org/1999/xlink" viewBox="0,0,256,256" width="512px" height="512px"><g fill="#818181" fill-rule="nonzero" stroke="none" stroke-width="1" stroke-linecap="butt" stroke-linejoin="miter" stroke-miterlimit="10" stroke-dasharray="" stroke-dashoffset="0" font-family="none" font-weight="none" font-size="none" text-anchor="none" style="mix-blend-mode: normal"><g transform="scale(3.2,3.2)"><path d="M19.25,53.92c-0.55,-0.01 -0.99,-0.47 -0.97,-1.02v0c0.01,-0.55 0.47,-0.99 1.02,-0.97v0c0.55,0.01 0.99,0.47 0.97,1.02v0c-0.01,0.54 -0.45,0.97 -0.989,0.97v0c-0.011,0 -0.021,0 -0.031,0zM23.34,52.93c-0.021,-0.55 0.41,-1.01 0.96,-1.03h0.01c0.55,-0.02 1.01,0.41 1.03,0.97v0c0.01,0.55 -0.42,1.01 -0.97,1.03v0c-0.011,0 -0.021,0 -0.03,0v0c-0.54,0 -0.99,-0.43 -1,-0.97zM14.13,53.63c-0.55,-0.05 -0.96,-0.54 -0.9,-1.09v0c0.051,-0.55 0.54,-0.95 1.09,-0.9v0c0.551,0.05 0.95,0.54 0.9,1.09v0c-0.05,0.52 -0.49,0.9 -0.99,0.9v0c-0.041,0 -0.07,0 -0.1,0zM28.39,52.7c-0.04,-0.55 0.37,-1.04 0.92,-1.08v0c0.55,-0.04 1.03,0.37 1.07,0.92v0c0.05,0.55 -0.37,1.03 -0.91,1.08v0c-0.03,0 -0.06,0 -0.08,0v0c-0.52,0 -0.96,-0.4 -1,-0.92zM33.43,52.24c-0.07,-0.55 0.33,-1.04 0.88,-1.11v0c0.54,-0.06 1.04,0.33 1.11,0.88v0c0.06,0.55 -0.33,1.04 -0.88,1.11v0c-0.04,0 -0.08,0 -0.12,0v0c-0.5,0 -0.93,-0.37 -0.99,-0.88zM9.01,52.86c-0.54,-0.11 -0.88,-0.64 -0.77,-1.18v0c0.119,-0.54 0.649,-0.89 1.189,-0.77v0c0.54,0.12 0.88,0.65 0.771,1.19v0c-0.101,0.47 -0.521,0.79 -0.98,0.79v0c-0.071,0 -0.14,-0.01 -0.21,-0.03zM38.45,51.59c-0.091,-0.55 0.29,-1.06 0.83,-1.14v0c0.55,-0.09 1.06,0.29 1.14,0.83v0c0.09,0.55 -0.28,1.06 -0.83,1.15v0c-0.05,0 -0.1,0.01 -0.15,0.01v0c-0.49,0 -0.91,-0.36 -0.99,-0.85zM43.439,50.76c-0.1,-0.55 0.25,-1.07 0.79,-1.17v0c0.551,-0.11 1.07,0.25 1.17,0.79v0c0.11,0.54 -0.239,1.06 -0.79,1.17v0c-0.06,0.01 -0.119,0.02 -0.189,0.02v0c-0.47,0 -0.89,-0.33 -0.981,-0.81zM3.979,51.24v0v0c-0.5,-0.25 -0.71,-0.85 -0.46,-1.34v0c0.24,-0.5 0.84,-0.71 1.33,-0.46v0c0.5,0.24 0.71,0.84 0.46,1.33v0c-0.17,0.36 -0.529,0.57 -0.899,0.57v0c-0.14,0 -0.29,-0.04 -0.431,-0.1zM48.399,49.74c-0.119,-0.53 0.21,-1.07 0.75,-1.19v0c0.54,-0.13 1.07,0.21 1.2,0.74v0c0.13,0.54 -0.21,1.08 -0.75,1.2v0c-0.069,0.02 -0.149,0.03 -0.229,0.03v0c-0.45,0 -0.86,-0.31 -0.971,-0.78zM53.319,48.55c-0.149,-0.54 0.16,-1.09 0.7,-1.23v0c0.53,-0.15 1.08,0.16 1.23,0.7v0c0.14,0.53 -0.17,1.08 -0.7,1.22v0c-0.09,0.03 -0.18,0.04 -0.27,0.04v0c-0.439,0 -0.84,-0.29 -0.96,-0.73zM58.18,47.14c-0.17,-0.52 0.12,-1.09 0.65,-1.26h-0.011c0.53,-0.17 1.091,0.12 1.271,0.64v0c0.17,0.53 -0.12,1.09 -0.65,1.27v0c0,0 0,0 0,-0.01v0c-0.1,0.04 -0.199,0.05 -0.31,0.05v0c-0.42,0 -0.811,-0.27 -0.95,-0.69zM0.069,47c0,0 0,0 0,-0.01v0c-0.1,-0.54 0.261,-1.06 0.801,-1.16v0c0.54,-0.1 1.069,0.26 1.17,0.8v0c0.1,0.55 -0.26,1.07 -0.811,1.17v0c-0.06,0.01 -0.12,0.01 -0.18,0.01v0c-0.469,0 -0.889,-0.33 -0.98,-0.81zM62.97,45.51c-0.2,-0.52 0.061,-1.1 0.58,-1.3v0c0.51,-0.2 1.09,0.06 1.29,0.58v0c0.2,0.51 -0.06,1.09 -0.57,1.29v0c-0.12,0.04 -0.239,0.07 -0.359,0.07v0c-0.411,0 -0.781,-0.25 -0.941,-0.64zM2.27,43.07c-0.399,-0.38 -0.41,-1.02 -0.029,-1.41v0c0.39,-0.4 1.02,-0.41 1.42,-0.03v0c0.399,0.38 0.409,1.02 0.02,1.41h0.01c-0.199,0.21 -0.46,0.31 -0.729,0.31v0c-0.252,0 -0.502,-0.09 -0.692,-0.28zM72.17,41.29c-0.29,-0.47 -0.15,-1.08 0.32,-1.37v0c0.47,-0.3 1.09,-0.15 1.38,0.32v0c0.29,0.46 0.14,1.08 -0.32,1.37v0c-0.17,0.11 -0.35,0.15 -0.53,0.15v0c-0.331,0 -0.661,-0.16 -0.85,-0.47zM6.1,39.78c-0.29,-0.47 -0.15,-1.08 0.32,-1.38v0v0v0c0.47,-0.29 1.09,-0.15 1.38,0.33v0c0.29,0.46 0.15,1.08 -0.32,1.37v0c-0.17,0.1 -0.35,0.15 -0.529,0.15v0c-0.331,0 -0.661,-0.16 -0.851,-0.47zM76.31,38.39c-0.39,-0.38 -0.399,-1.02 -0.02,-1.41v0c0.38,-0.4 1.02,-0.41 1.41,-0.02v0c0.399,0.38 0.409,1.01 0.029,1.41v0v0v0c-0.199,0.2 -0.46,0.3 -0.72,0.3v0c-0.249,0 -0.499,-0.09 -0.699,-0.28zM15.13,35.23c-0.2,-0.52 0.05,-1.1 0.57,-1.3v0c0.51,-0.2 1.09,0.06 1.29,0.57v0c0.199,0.52 -0.061,1.1 -0.57,1.3v0c-0.12,0.04 -0.24,0.07 -0.36,0.07v0c-0.4,0 -0.78,-0.25 -0.93,-0.64zM77.97,33.39c-0.01,-0.01 -0.01,-0.02 -0.01,-0.03v0c0,0 0,-0.01 0,-0.02v0c-0.11,-0.54 0.24,-1.06 0.79,-1.17v0c0.54,-0.11 1.06,0.25 1.17,0.79v0c0,0.02 0.01,0.04 0.01,0.06v0c0,0.01 0,0.02 0.01,0.03v0v0v0c0.091,0.54 -0.27,1.06 -0.819,1.15v0c-0.061,0.01 -0.11,0.02 -0.17,0.02v0c-0.481,0 -0.901,-0.35 -0.981,-0.83zM19.88,33.49c-0.17,-0.53 0.12,-1.09 0.64,-1.26v0c0.53,-0.18 1.09,0.11 1.261,0.64v0c0.17,0.52 -0.12,1.09 -0.641,1.26v0c-0.1,0.03 -0.21,0.05 -0.31,0.05v0c-0.42,0 -0.81,-0.27 -0.95,-0.69zM24.72,32c-0.15,-0.54 0.16,-1.09 0.7,-1.24v0c0.53,-0.14 1.08,0.17 1.229,0.7v0c0.141,0.54 -0.17,1.09 -0.71,1.23v0c-0.08,0.03 -0.17,0.04 -0.26,0.04v0c-0.439,0 -0.839,-0.29 -0.959,-0.73zM29.609,30.72c-0.119,-0.54 0.21,-1.08 0.75,-1.2v0c0.54,-0.13 1.08,0.21 1.2,0.74v0c0.13,0.54 -0.21,1.08 -0.75,1.2v0c-0.069,0.02 -0.149,0.03 -0.22,0.03v0c-0.459,0 -0.869,-0.31 -0.98,-0.77zM75.109,30.55h0.011c-0.5,-0.24 -0.71,-0.84 -0.471,-1.34v0c0.24,-0.5 0.841,-0.7 1.341,-0.46v0c0.489,0.24 0.699,0.84 0.46,1.33v0c-0.17,0.36 -0.53,0.57 -0.9,0.57v0c-0.151,0 -0.3,-0.04 -0.441,-0.1zM34.56,29.63c-0.109,-0.54 0.25,-1.07 0.79,-1.17v0c0.54,-0.11 1.07,0.25 1.17,0.79v0c0.11,0.54 -0.25,1.07 -0.79,1.17v0c-0.06,0.01 -0.13,0.02 -0.189,0.02v0c-0.472,0 -0.892,-0.33 -0.981,-0.81zM39.54,28.72c-0.09,-0.54 0.29,-1.05 0.83,-1.14v0c0.55,-0.08 1.06,0.29 1.14,0.84v0c0.09,0.54 -0.28,1.05 -0.83,1.14v0c-0.05,0.01 -0.1,0.01 -0.16,0.01v0c-0.48,0 -0.911,-0.35 -0.98,-0.85zM70.54,29.08c-0.54,-0.11 -0.891,-0.65 -0.771,-1.18v0c0.11,-0.55 0.641,-0.89 1.181,-0.78v0c0.54,0.12 0.89,0.65 0.77,1.19v0c-0.1,0.47 -0.51,0.79 -0.979,0.79v0c-0.061,0 -0.132,0 -0.201,-0.02zM44.55,28c-0.07,-0.55 0.32,-1.05 0.87,-1.11v0c0.55,-0.07 1.05,0.32 1.11,0.87v0c0.069,0.55 -0.32,1.05 -0.87,1.11v0c-0.04,0.01 -0.08,0.01 -0.12,0.01v0c-0.5,0 -0.931,-0.37 -0.99,-0.88zM49.58,27.46c-0.05,-0.55 0.37,-1.03 0.92,-1.07v0v0v0c0.55,-0.05 1.03,0.36 1.069,0.92v0c0.051,0.55 -0.369,1.03 -0.92,1.07v0c-0.02,0 -0.05,0 -0.08,0v0c-0.509,0 -0.949,-0.4 -0.989,-0.92zM65.649,28.36c-0.55,-0.06 -0.96,-0.55 -0.909,-1.09v0c0.06,-0.55 0.54,-0.96 1.09,-0.9v0c0,0 0,0 0.01,0v0c0.55,0.05 0.95,0.54 0.89,1.09v0c-0.04,0.51 -0.479,0.9 -0.989,0.9v0c-0.031,0 -0.061,0 -0.092,0zM54.63,27.13c-0.021,-0.55 0.41,-1.01 0.97,-1.03v0c0.55,-0.02 1.01,0.42 1.03,0.97v0c0.02,0.55 -0.42,1.01 -0.97,1.03v0c-0.011,0 -0.021,0 -0.03,0v0c-0.54,0 -0.99,-0.42 -1,-0.97zM60.66,28.07c-0.551,-0.01 -0.99,-0.47 -0.971,-1.02v0c0.011,-0.55 0.471,-0.99 1.021,-0.98v0c0.55,0.01 0.99,0.47 0.979,1.03v0c-0.02,0.54 -0.46,0.97 -1,0.97v0c-0.009,0 -0.019,0 -0.029,0zM60.389,42.462l-0.121,-6.907h2.179v8.707h-3.131l-2.175,-7.146h-0.046l0.12,7.146h-2.165v-8.707h3.268l2.023,6.907zM20.793,36.37l-1.206,7.984h-2.376l1.63,-8.799h3.914l1.626,8.799h-2.368l-1.172,-7.984zM31.053,42.281l1.087,-6.726h3.588l0.19,8.799h-2.198l-0.059,-7.911h-0.046l-1.47,7.911h-2.232l-1.473,-7.911h-0.046l-0.055,7.911h-2.204l0.195,-8.799h3.59l1.085,6.726zM13.506,41.872c0.087,0.213 0.06,0.488 0.02,0.652c-0.074,0.293 -0.273,0.59 -0.856,0.59c-0.553,0 -0.886,-0.317 -0.886,-0.798v-0.851h-2.363l-0.002,0.681c0,1.961 1.544,2.555 3.2,2.555c1.592,0 2.902,-0.544 3.11,-2.011c0.108,-0.761 0.027,-1.257 -0.009,-1.447c-0.371,-1.842 -3.711,-2.392 -3.959,-3.422c-0.043,-0.176 -0.03,-0.363 -0.009,-0.465c0.062,-0.28 0.254,-0.589 0.803,-0.589c0.514,0 0.817,0.319 0.817,0.798c0,0.161 0,0.544 0,0.544h2.193v-0.617c0,-1.917 -1.72,-2.216 -2.966,-2.216c-1.566,0 -2.844,0.518 -3.078,1.949c-0.064,0.395 -0.073,0.748 0.02,1.19c0.387,1.795 3.511,2.317 3.965,3.457zM42.116,41.856c0.087,0.211 0.059,0.479 0.02,0.644c-0.073,0.293 -0.269,0.585 -0.849,0.585c-0.544,0 -0.876,-0.317 -0.876,-0.787l-0.002,-0.844h-2.337l-0.004,0.672c0,1.941 1.53,2.528 3.168,2.528c1.574,0 2.872,-0.537 3.078,-1.989c0.108,-0.755 0.032,-1.245 -0.007,-1.431c-0.369,-1.824 -3.675,-2.369 -3.92,-3.39c-0.043,-0.176 -0.03,-0.36 -0.009,-0.456c0.064,-0.284 0.252,-0.583 0.796,-0.583c0.511,0 0.807,0.31 0.807,0.787c0,0.16 0,0.539 0,0.539h2.177v-0.612c0,-1.897 -1.706,-2.193 -2.941,-2.193c-1.548,0 -2.815,0.511 -3.044,1.933c-0.064,0.39 -0.071,0.736 0.021,1.175c0.38,1.776 3.474,2.294 3.922,3.422zM49.506,43.038c0.61,0 0.8,-0.422 0.842,-0.638c0.018,-0.096 0.023,-0.222 0.021,-0.337v-6.512h2.225v6.312c0.005,0.161 -0.011,0.495 -0.02,0.576c-0.156,1.644 -1.456,2.175 -3.071,2.175c-1.619,0 -2.918,-0.534 -3.073,-2.175c-0.007,-0.083 -0.023,-0.417 -0.02,-0.576v-6.312h2.223v6.51c0,0.113 0.004,0.243 0.021,0.337c0.053,0.215 0.237,0.64 0.852,0.64zM67.862,42.944c0.637,0 0.86,-0.402 0.901,-0.636c0.016,-0.101 0.021,-0.223 0.02,-0.335v-1.277h-0.903v-1.284h3.12v2.362c-0.002,0.165 -0.005,0.287 -0.032,0.58c-0.145,1.601 -1.535,2.172 -3.094,2.172c-1.562,0 -2.948,-0.571 -3.097,-2.172c-0.025,-0.294 -0.028,-0.415 -0.032,-0.58l0.002,-3.704c0,-0.156 0.02,-0.433 0.037,-0.58c0.195,-1.645 1.528,-2.174 3.09,-2.174c1.56,0 2.927,0.527 3.089,2.174c0.028,0.28 0.02,0.58 0.02,0.58v0.294h-2.218v-0.493c0.002,0.002 -0.004,-0.209 -0.028,-0.335c-0.037,-0.195 -0.206,-0.642 -0.878,-0.642c-0.642,0 -0.828,0.422 -0.876,0.642c-0.027,0.115 -0.037,0.273 -0.037,0.415v4.025c-0.002,0.112 0.005,0.234 0.023,0.335c0.035,0.231 0.256,0.633 0.893,0.633z"></path></g></g></svg>