<svg xmlns="http://www.w3.org/2000/svg" xmlns:xlink="http://www.w3.org/1999/xlink" viewBox="0,0,256,256" width="512px" height="512px"><g transform="translate(64,64) scale(0.5,0.5)"><g fill="#757575" fill-rule="nonzero" stroke="none" stroke-width="1" stroke-linecap="butt" stroke-linejoin="miter" stroke-miterlimit="10" stroke-dasharray="" stroke-dashoffset="0" font-family="none" font-weight="none" font-size="none" text-anchor="none" style="mix-blend-mode: normal"><g transform="translate(-91.136,-110.36619) scale(5.12,5.12)"><path d="M47.3,21.01c-0.58,-1.6 -1.3,-3.16 -2.24,-4.66c-0.93,-1.49 -2.11,-2.93 -3.63,-4.13c-1.51,-1.19 -3.49,-2.09 -5.59,-2.26l-0.78,-0.04c-0.27,0.01 -0.57,0.01 -0.85,0.04c-0.57,0.06 -1.11,0.19 -1.62,0.34c-1.03,0.32 -1.93,0.8 -2.72,1.32c-1.42,0.94 -2.55,2.03 -3.57,3.15c0.01,0.02 0.03,0.03 0.04,0.05l0.22,0.28c0.51,0.67 1.62,2.21 2.61,3.87c1.23,-1.2 2.83,-2.65 3.49,-3.07c0.5,-0.31 0.99,-0.55 1.43,-0.68c0.23,-0.06 0.44,-0.11 0.64,-0.12c0.1,-0.02 0.19,-0.01 0.3,-0.02l0.38,0.02c0.98,0.09 1.94,0.49 2.85,1.19c1.81,1.44 3.24,3.89 4.17,6.48c0.95,2.6 1.49,5.44 1.52,8.18c0,1.31 -0.17,2.57 -0.57,3.61c-0.39,1.05 -1.38,1.45 -2.5,1.45c-1.63,0 -2.81,-0.7 -3.76,-1.68c-1.04,-1.09 -2.02,-2.31 -2.96,-3.61c-0.78,-1.09 -1.54,-2.22 -2.26,-3.37c-1.27,-2.06 -2.97,-4.67 -4.15,-6.85l-2.75,-4.15c-0.31,-0.39 -0.61,-0.78 -0.94,-1.17c-1.11,-1.26 -2.34,-2.5 -3.93,-3.56c-0.79,-0.52 -1.69,-1 -2.72,-1.32c-0.51,-0.15 -1.05,-0.28 -1.62,-0.34c-0.18,-0.02 -0.36,-0.03 -0.54,-0.03c-0.11,0 -0.21,-0.01 -0.31,-0.01l-0.78,0.04c-2.1,0.17 -4.08,1.07 -5.59,2.26c-1.52,1.2 -2.7,2.64 -3.63,4.13c-0.94,1.5 -1.66,3.06 -2.24,4.66c-1.13,3.2 -1.74,6.51 -1.75,9.93c0.01,1.78 0.24,3.63 0.96,5.47c0.7,1.8 2.02,3.71 4.12,4.77c1.03,0.53 2.2,0.81 3.32,0.81c1.23,0.03 2.4,-0.32 3.33,-0.77c1.87,-0.93 3.16,-2.16 4.33,-3.4c2.31,-2.51 4.02,-5.23 5.6,-8c0.44,-0.76 0.86,-1.54 1.27,-2.33c-0.21,-0.41 -0.42,-0.84 -0.64,-1.29c-0.62,-1.03 -1.39,-2.25 -1.95,-3.1c-0.83,1.5 -1.69,2.96 -2.58,4.41c-1.59,2.52 -3.3,4.97 -5.21,6.98c-0.95,0.98 -2,1.84 -2.92,2.25c-0.47,0.2 -0.83,0.27 -1.14,0.25c-0.43,0 -0.79,-0.1 -1.13,-0.28c-0.67,-0.35 -1.3,-1.1 -1.69,-2.15c-0.4,-1.04 -0.57,-2.3 -0.57,-3.61c0.03,-2.74 0.57,-5.58 1.52,-8.18c0.93,-2.59 2.36,-5.04 4.17,-6.48c0.91,-0.7 1.87,-1.1 2.85,-1.19l0.38,-0.02c0.11,0.01 0.2,0 0.3,0.02c0.2,0.01 0.41,0.06 0.64,0.12c0.26,0.08 0.54,0.19 0.83,0.34c0.2,0.1 0.4,0.21 0.6,0.34c1,0.64 1.99,1.58 2.92,2.62c0.72,0.81 1.41,1.71 2.1,2.63l2.64,4.09c0.75,1.55 1.53,3.09 2.39,4.58c1.58,2.77 3.29,5.49 5.6,8c0.68,0.73 1.41,1.45 2.27,2.1c0.61,0.48 1.28,0.91 2.06,1.3c0.93,0.45 2.1,0.8 3.33,0.77c1.12,0 2.29,-0.28 3.32,-0.81c2.1,-1.06 3.42,-2.97 4.12,-4.77c0.72,-1.84 0.95,-3.69 0.96,-5.47c-0.01,-3.42 -0.62,-6.73 -1.75,-9.93z"></path></g></g><g fill="#9d9b9b" fill-rule="nonzero" stroke="none" stroke-width="1" stroke-linecap="butt" stroke-linejoin="miter" stroke-miterlimit="10" stroke-dasharray="" stroke-dashoffset="0" font-family="none" font-weight="none" font-size="none" text-anchor="none" style="mix-blend-mode: normal"><g><path d="M101.51812,158.15948h14.81l15.94,74.13l41.75,-74.13h15.44l-15.81,91h-11.69l6.25,-36l7.44,-36.62l-41.25,72.62h-9l-16.25,-74.06l-5.63,39.25l-6.06,34.81h-11.75zM222.20812,250.40948v0c-8.42,-0.16667 -15.00333,-3.27 -19.75,-9.31c-4.75333,-6.04 -6.75333,-13.77 -6,-23.19v0l0.31,-2.69c0.70667,-6.70667 2.69667,-12.83 5.97,-18.37c3.27333,-5.54 7.26333,-9.71667 11.97,-12.53c4.70667,-2.81333 9.79,-4.15667 15.25,-4.03v0c6.96,0.16667 12.41667,2.47667 16.37,6.93c3.96,4.46 6.12667,10.50333 6.5,18.13v0c0.12667,2.70667 0.04333,5.41333 -0.25,8.12v0l-0.68,5.19h-44.19c-0.75333,6.12667 0.25667,11.33667 3.03,15.63c2.77333,4.28667 6.91,6.51333 12.41,6.68v0c6.66667,0.16667 12.83333,-2.83333 18.5,-9v0l6.5,5.5c-2.83333,4.08667 -6.49,7.28667 -10.97,9.6c-4.48,2.31333 -9.47,3.42667 -14.97,3.34zM229.39812,189.71948v0c-4.66667,-0.12 -8.74,1.46333 -12.22,4.75c-3.48,3.29333 -6.24,8.19 -8.28,14.69v0l32.87,0.06l0.25,-1c0.66667,-5.24667 -0.17667,-9.61 -2.53,-13.09c-2.35333,-3.48 -5.71667,-5.28333 -10.09,-5.41zM277.95812,165.15948h11.25l-2.88,16.38h12.32l-1.57,8.93h-12.25l-7.06,42.07c-0.12667,1.08 -0.14667,2.08 -0.06,3v0c0.29333,3.24667 2.06333,4.87 5.31,4.87v0c1.37333,0 3.20667,-0.20667 5.5,-0.62v0l-0.87,9.43c-2.71333,0.75333 -5.46333,1.13 -8.25,1.13v0c-4.5,-0.08667 -7.87667,-1.74333 -10.13,-4.97c-2.24667,-3.22667 -3.12,-7.57 -2.62,-13.03v0l6.87,-41.88h-11.94l1.57,-8.93h11.93zM353.39812,249.15948h-11.5c-0.29333,-1.20667 -0.44,-2.39333 -0.44,-3.56v0l0.19,-3.56c-6.21333,5.74667 -12.79667,8.53667 -19.75,8.37v0c-5.96,-0.08 -10.80667,-1.96667 -14.54,-5.66c-3.72667,-3.68667 -5.42333,-8.3 -5.09,-13.84v0c0.42,-7.16667 3.55667,-12.76 9.41,-16.78c5.85333,-4.02 13.55,-6.03 23.09,-6.03v0l11.81,0.06l0.75,-5.37c0.42,-4.04667 -0.36,-7.24667 -2.34,-9.6c-1.98,-2.35333 -4.95,-3.57 -8.91,-3.65v0c-3.87333,-0.08667 -7.3,0.86 -10.28,2.84c-2.98,1.98 -4.80333,4.59333 -5.47,7.84v0l-11.37,0.07c0.37333,-3.96 1.91333,-7.47333 4.62,-10.54c2.71333,-3.06 6.19333,-5.43333 10.44,-7.12c4.25333,-1.68667 8.65,-2.49 13.19,-2.41v0c7.04,0.16667 12.52,2.30333 16.44,6.41c3.91333,4.10667 5.55667,9.55333 4.93,16.34v0l-5.5,33.5l-0.31,4.82c-0.08,2.28667 0.17,4.55667 0.75,6.81v0zM324.14812,240.40948v0c3.62,0.08667 7.04667,-0.77667 10.28,-2.59c3.22667,-1.81333 6.00667,-4.32333 8.34,-7.53v0l2.44,-13.94l-8.56,-0.06c-7.12667,0 -12.58667,1.12333 -16.38,3.37c-3.79333,2.25333 -5.94,5.44 -6.44,9.56v0c-0.37333,3.16667 0.36667,5.80333 2.22,7.91c1.85333,2.10667 4.55333,3.2 8.1,3.28z"></path></g></g></g></svg>