<svg xmlns="http://www.w3.org/2000/svg" xmlns:xlink="http://www.w3.org/1999/xlink" viewBox="0,0,256,256" width="512px" height="512px"><g fill="none" fill-rule="nonzero" stroke="none" stroke-width="1" stroke-linecap="butt" stroke-linejoin="miter" stroke-miterlimit="10" stroke-dasharray="" stroke-dashoffset="0" font-family="none" font-weight="none" font-size="none" text-anchor="none" style="mix-blend-mode: normal"><g transform="scale(5.33333,5.33333)"><path d="M0,17v14h14v-14zM34,17v14h14v-14zM17,17v14h14v-14z" fill="#818181"></path><path d="M8.2,23.7c0,0 1.3,-0.5 1.3,-2c0,0 0.2,-2.4 -3,-2.7h-3.5v10h4c0,0 3.4,0 3.4,-2.8c0,0 0.1,-1.9 -2.2,-2.5zM4.8,20.6h1.4c1.5,0.1 1.4,1.2 1.4,1.2c0,1.4 -1.6,1.4 -1.6,1.4h-1.2zM6.7,27.5h-1.9v-2.7h1.9c1.9,0 1.9,1.3 1.9,1.3c-0.1,1.4 -1.9,1.4 -1.9,1.4zM25.2,23.7c0,0 1.3,-0.5 1.3,-2c0,0 0.2,-2.4 -3,-2.7h-3.5v10h4c0,0 3.4,0 3.4,-2.8c0,0 0.1,-1.9 -2.2,-2.5zM21.8,20.6h1.4c1.5,0.1 1.4,1.2 1.4,1.2c0,1.4 -1.6,1.4 -1.6,1.4h-1.2zM23.7,27.5h-1.9v-2.7h1.9c1.9,0 1.9,1.3 1.9,1.3c-0.1,1.4 -1.9,1.4 -1.9,1.4zM45.3,28.1c0,0 -2.9,1.8 -6.3,0.4c0,0 -2.9,-1.1 -3,-4.5c0,0 -0.1,-3.5 3.7,-4.7c0,0 1,-0.4 2.8,-0.2c0,0 1.1,0.1 2.7,0.8v1.8c0,0 -1.7,-1.1 -3.7,-1.1c0,0 -3.6,-0.1 -3.8,3.5c0,0 -0.1,3.3 3.7,3.4c0,0 1.6,0.2 3.8,-1.2l0.1,1.8z" fill="#ffffff"></path></g></g></svg>