<svg xmlns="http://www.w3.org/2000/svg" xmlns:xlink="http://www.w3.org/1999/xlink" viewBox="0,0,256,256" width="512px" height="512px"><g transform="translate(64,64) scale(0.5,0.5)"><g fill="#757575" fill-rule="nonzero" stroke="none" stroke-width="1" stroke-linecap="butt" stroke-linejoin="miter" stroke-miterlimit="10" stroke-dasharray="" stroke-dashoffset="0" font-family="none" font-weight="none" font-size="none" text-anchor="none" style="mix-blend-mode: normal"><g transform="translate(-90.93943,-105.472) scale(5.12,5.12)"><path d="M25.3125,3c-6.10156,0 -12.82031,2.3125 -14.21875,9.8125c-0.19922,0.80078 0.40625,1.17969 0.90625,1.28125l6.1875,0.59375c0.60156,0 1.01953,-0.58594 1.21875,-1.1875c0.5,-2.60156 2.69531,-3.90625 5.09375,-3.90625c1.30078,0 2.79297,0.51953 3.59375,1.71875c0.89844,1.30078 0.71875,3.09375 0.71875,4.59375v0.90625c-3.69922,0.39844 -8.5,0.6875 -12,2.1875c-4,1.69922 -6.8125,5.20703 -6.8125,10.40625c0,6.60156 4.19922,9.90625 9.5,9.90625c4.5,0 7,-1.11719 10.5,-4.71875c1.19922,1.69922 1.58594,2.51172 3.6875,4.3125c0.5,0.30078 1.10156,0.17969 1.5,-0.21875v0.125c1.30078,-1.10156 3.60547,-3.21094 4.90625,-4.3125c0.5,-0.30078 0.39844,-1 0,-1.5c-1.19922,-1.60156 -2.40625,-2.90625 -2.40625,-5.90625v-9.90625c0,-4.19922 0.32031,-8.10156 -2.78125,-11c-2.5,-2.39844 -6.49219,-3.1875 -9.59375,-3.1875zM27,22h1.6875v1.40625c0,2.39844 0.10547,4.48828 -1.09375,6.6875c-1,1.80078 -2.60547,2.90625 -4.40625,2.90625c-2.39844,0 -3.875,-1.79297 -3.875,-4.59375c0,-4.69922 3.6875,-6.10547 7.6875,-6.40625zM44.59375,36.59375c-1.60156,0 -3.50781,0.40625 -4.90625,1.40625c-0.39844,0.30078 -0.375,0.6875 0.125,0.6875c1.60156,-0.19922 5.17578,-0.67969 5.875,0.21875c0.60156,0.80078 -0.67969,4.17969 -1.28125,5.78125c-0.19922,0.5 0.19531,0.61328 0.59375,0.3125c2.69922,-2.30078 3.40625,-6.99219 2.90625,-7.59375c-0.30078,-0.5 -1.71094,-0.8125 -3.3125,-0.8125zM2.1875,37.5c-0.30078,0 -0.49219,0.51172 -0.09375,0.8125c6,5.39844 13.91406,8.6875 22.8125,8.6875c6.30078,0 13.58594,-1.98828 18.6875,-5.6875c0.80078,-0.60156 0.11328,-1.61719 -0.6875,-1.21875c-5.69922,2.39844 -11.80469,3.59375 -17.40625,3.59375c-8.30078,0 -16.3125,-2.30078 -22.8125,-6c-0.19922,-0.19922 -0.39844,-0.1875 -0.5,-0.1875z"></path></g></g><g fill="#9d9b9b" fill-rule="nonzero" stroke="none" stroke-width="1" stroke-linecap="butt" stroke-linejoin="miter" stroke-miterlimit="10" stroke-dasharray="" stroke-dashoffset="0" font-family="none" font-weight="none" font-size="none" text-anchor="none" style="mix-blend-mode: normal"><g><path d="M26.63027,278.58813l-3.8,-20.9h-32.44l-10.95,20.9h-11.06l43.51,-80.08h9.08l15.84,80.08zM14.64027,211.64813l-19.69,37.35h26.34zM56.66027,219.07813l9.35,-0.05l-1.26,6.65c4.98,-5.28 11.01,-7.84667 18.09,-7.7v0c3.77333,0.07333 6.97333,0.93667 9.6,2.59c2.62,1.64667 4.42667,3.97333 5.42,6.98v0c5.57333,-6.52667 12.15333,-9.71667 19.74,-9.57v0c5.94,0.14667 10.32333,2.14333 13.15,5.99c2.82,3.85333 3.86333,9.02333 3.13,15.51v0l-6.54,39.11h-9.91l6.49,-39.22c0.22,-1.90667 0.22,-3.64667 0,-5.22v0c-0.69333,-4.98667 -3.95333,-7.53667 -9.78,-7.65v0c-3.63333,-0.06667 -6.92667,1.06333 -9.88,3.39c-2.94667,2.32667 -4.84333,5.37667 -5.69,9.15v0l-6.76,39.55h-10.02l6.61,-39.16c0.47333,-4.06667 -0.14333,-7.2 -1.85,-9.4c-1.7,-2.20667 -4.34667,-3.34667 -7.94,-3.42v0c-6.2,-0.14 -11.13333,2.68333 -14.8,8.47v0l-7.53,43.51h-9.96zM189.21027,278.58813h-10.12c-0.26,-1.06 -0.39,-2.10667 -0.39,-3.14v0l0.17,-3.13c-5.46667,5.06 -11.26,7.51667 -17.38,7.37v0c-5.24667,-0.07333 -9.51,-1.73333 -12.79,-4.98c-3.28,-3.24667 -4.77333,-7.30667 -4.48,-12.18v0c0.36667,-6.30667 3.12667,-11.23 8.28,-14.77c5.14667,-3.54 11.92,-5.31 20.32,-5.31v0l10.4,0.06l0.65,-4.73c0.36667,-3.55333 -0.32,-6.36667 -2.06,-8.44c-1.74,-2.07333 -4.35333,-3.14667 -7.84,-3.22v0c-3.40667,-0.07333 -6.42,0.76 -9.04,2.5c-2.62,1.74 -4.22667,4.04333 -4.82,6.91v0l-10.01,0.05c0.33333,-3.48 1.69,-6.57 4.07,-9.27c2.38667,-2.69333 5.45,-4.78333 9.19,-6.27c3.74,-1.48 7.61,-2.18333 11.61,-2.11v0c6.19333,0.14667 11.01333,2.02333 14.46,5.63c3.44667,3.61333 4.89667,8.41 4.35,14.39v0l-4.85,29.47l-0.27,4.24c-0.07333,2.01333 0.14667,4.01 0.66,5.99v0zM163.47027,270.88813v0c3.18667,0.07333 6.20333,-0.68667 9.05,-2.28c2.84,-1.59333 5.28667,-3.80333 7.34,-6.63v0l2.14,-12.26l-7.53,-0.06c-6.27333,0 -11.07667,0.99 -14.41,2.97c-3.33333,1.98 -5.22333,4.78333 -5.67,8.41v0c-0.32667,2.79333 0.32667,5.11333 1.96,6.96c1.62667,1.85333 4,2.81667 7.12,2.89zM253.23027,226.77813l-39.38,43.51h33.44l-1.49,8.3h-45.87l1.38,-7.97l38.99,-43.12h-31.07l1.54,-8.42h43.78zM289.59027,217.97813v0c4.98667,0.07333 9.25667,1.43 12.81,4.07c3.56,2.64 6.19,6.28 7.89,10.92c1.70667,4.63333 2.28667,9.7 1.74,15.2v0l-0.11,1.22c-0.7,5.79333 -2.42333,11.02667 -5.17,15.7c-2.75333,4.67333 -6.31,8.31333 -10.67,10.92c-4.36667,2.6 -9.15333,3.82667 -14.36,3.68v0c-4.94667,-0.07333 -9.21,-1.43 -12.79,-4.07c-3.57333,-2.64 -6.18667,-6.23333 -7.84,-10.78c-1.64667,-4.54667 -2.23,-9.55 -1.75,-15.01v0c0.54667,-6.16667 2.21333,-11.70333 5,-16.61c2.78667,-4.91333 6.37,-8.72 10.75,-11.42c4.38,-2.69333 9.21333,-3.96667 14.5,-3.82zM269.46027,248.60813l-0.12,1.27c-0.25333,2.30667 -0.25333,4.71 0,7.21v0c0.37333,4.32667 1.66667,7.77 3.88,10.33c2.22,2.57333 5.18,3.91333 8.88,4.02v0c3.30667,0.11333 6.35333,-0.70333 9.14,-2.45c2.78667,-1.74 5.13333,-4.37 7.04,-7.89c1.90667,-3.52 3.13333,-7.42333 3.68,-11.71v0c0.29333,-3.37333 0.35,-6.21667 0.17,-8.53v0c-0.44,-4.44 -1.78,-7.94 -4.02,-10.5c-2.23333,-2.57333 -5.20333,-3.93 -8.91,-4.07v0c-5.13333,-0.11333 -9.49667,1.9 -13.09,6.04c-3.59333,4.14667 -5.81,9.57333 -6.65,16.28zM329.74027,219.07813l9.4,-0.05l-1.43,7.53c5.35333,-5.86667 11.44,-8.72667 18.26,-8.58v0c5.61333,0.14667 9.75667,2.09 12.43,5.83c2.68,3.74 3.67,9.00333 2.97,15.79v0l-6.49,38.99h-9.95l6.54,-39.16c0.22,-1.8 0.24,-3.47 0.06,-5.01v0c-0.62667,-5.13333 -3.65333,-7.75333 -9.08,-7.86v0c-5.97333,-0.10667 -11.21667,3.08333 -15.73,9.57v0l-7.37,42.46h-9.95z"></path></g></g></g></svg>