<svg xmlns="http://www.w3.org/2000/svg" xmlns:xlink="http://www.w3.org/1999/xlink" viewBox="0,0,256,256" width="512px" height="512px"><g transform="translate(64,64) scale(0.5,0.5)"><g fill="#757575" fill-rule="nonzero" stroke="none" stroke-width="1" stroke-linecap="butt" stroke-linejoin="miter" stroke-miterlimit="10" stroke-dasharray="" stroke-dashoffset="0" font-family="none" font-weight="none" font-size="none" text-anchor="none" style="mix-blend-mode: normal"><g transform="translate(-91.136,-105.472) scale(5.12,5.12)"><path d="M5,4c-0.552,0 -1,0.447 -1,1v19h20v-20zM26,4v20h20v-19c0,-0.553 -0.448,-1 -1,-1zM4,26v19c0,0.553 0.448,1 1,1h19v-20zM26,26v20h19c0.552,0 1,-0.447 1,-1v-19z"></path></g></g><g fill="#9d9b9b" fill-rule="nonzero" stroke="none" stroke-width="1" stroke-linecap="butt" stroke-linejoin="miter" stroke-miterlimit="10" stroke-dasharray="" stroke-dashoffset="0" font-family="none" font-weight="none" font-size="none" text-anchor="none" style="mix-blend-mode: normal"><g><path d="M3.929,204.11392h10.66l11.48,53.37l30.06,-53.37h11.12l-11.39,65.52h-8.42l4.5,-25.92l5.36,-26.37l-29.7,52.29h-6.48l-11.7,-53.32l-4.05,28.25l-4.36,25.07h-8.47zM87.049,220.94392l-8.46,48.69h-8.11l8.47,-48.69zM85.289,203.16392v0c1.38,-0.05333 2.52667,0.36 3.44,1.24c0.92,0.88667 1.38,2.05 1.38,3.49v0c-0.03333,1.40667 -0.49333,2.56 -1.38,3.46c-0.88,0.9 -2.02667,1.38 -3.44,1.44c-1.41333,0.06 -2.56667,-0.34333 -3.46,-1.21c-0.9,-0.87333 -1.33667,-2.01333 -1.31,-3.42c0.03333,-1.41333 0.48333,-2.58333 1.35,-3.51c0.86667,-0.93333 2.00667,-1.43 3.42,-1.49zM112.469,263.78392v0c2.91333,0.06 5.54,-0.78667 7.88,-2.54c2.34,-1.76 3.87,-4.06333 4.59,-6.91v0l7.69,-0.05c-0.45333,3.06667 -1.67667,5.86 -3.67,8.38c-1.99333,2.52 -4.50667,4.48333 -7.54,5.89c-3.02667,1.40667 -6.13,2.06667 -9.31,1.98v0c-4.04667,-0.06 -7.47333,-1.11667 -10.28,-3.17c-2.80667,-2.06 -4.87,-4.92667 -6.19,-8.6c-1.32,-3.67333 -1.77,-7.80667 -1.35,-12.4v0l0.23,-2.25c0.56667,-4.67333 1.93,-8.85667 4.09,-12.55c2.16,-3.69333 4.98,-6.56667 8.46,-8.62c3.48,-2.05333 7.32,-3.02 11.52,-2.9v0c5.1,0.12 9.18,1.83 12.24,5.13c3.06,3.3 4.59,7.48333 4.59,12.55v0l-7.6,-0.04c-0.06,-3.18 -0.94667,-5.75333 -2.66,-7.72c-1.70667,-1.96 -4.01667,-3.00333 -6.93,-3.13v0c-4.22667,-0.08667 -7.74333,1.49 -10.55,4.73c-2.80667,3.24 -4.55333,7.77 -5.24,13.59v0l-0.14,1.17c-0.18,1.92 -0.21,3.9 -0.09,5.94v0c0.21333,3.50667 1.20333,6.28 2.97,8.32c1.77333,2.04 4.20333,3.10667 7.29,3.2zM170.339,220.63392l-0.9,7.73l-3.83,-0.4c-5.21333,0 -9.32,2.35333 -12.32,7.06v0l-5.99,34.61h-8.14l8.45,-48.69l7.88,-0.05l-1.22,5.67c3.45333,-4.52667 7.52,-6.73 12.2,-6.61v0c0.98667,0 2.27667,0.22667 3.87,0.68zM195.989,220.04392v0c4.08,0.06 7.57333,1.17 10.48,3.33c2.91333,2.16 5.06667,5.13667 6.46,8.93c1.39333,3.79333 1.86667,7.94333 1.42,12.45v0l-0.09,0.99c-0.57333,4.74 -1.98333,9.02 -4.23,12.84c-2.25333,3.82667 -5.16333,6.80667 -8.73,8.94c-3.56667,2.12667 -7.48333,3.13 -11.75,3.01v0c-4.04667,-0.06 -7.53333,-1.17 -10.46,-3.33c-2.92667,-2.16 -5.06333,-5.1 -6.41,-8.82c-1.35333,-3.72 -1.83333,-7.81333 -1.44,-12.28v0c0.45333,-5.04667 1.81667,-9.58 4.09,-13.6c2.28667,-4.02 5.22,-7.13 8.8,-9.33c3.58667,-2.20667 7.54,-3.25 11.86,-3.13zM179.519,245.10392l-0.09,1.04c-0.21333,1.88667 -0.21333,3.85 0,5.89v0c0.3,3.54667 1.35667,6.36667 3.17,8.46c1.82,2.1 4.24333,3.19667 7.27,3.29v0c2.7,0.08667 5.19,-0.58 7.47,-2c2.28,-1.42667 4.2,-3.58 5.76,-6.46c1.56,-2.88 2.56333,-6.07333 3.01,-9.58v0c0.24,-2.76 0.28667,-5.08667 0.14,-6.98v0c-0.36,-3.63333 -1.45667,-6.49667 -3.29,-8.59c-1.82667,-2.1 -4.25667,-3.21333 -7.29,-3.34v0c-4.2,-0.08667 -7.77,1.56333 -10.71,4.95c-2.94,3.39333 -4.75333,7.83333 -5.44,13.32zM250.529,256.44392v0c0.44667,-3.35333 -1.4,-5.72333 -5.54,-7.11v0l-8.45,-2.47c-7.14,-2.46 -10.59333,-6.54 -10.36,-12.24v0c0.21333,-4.29333 2.17333,-7.81 5.88,-10.55c3.7,-2.74667 8.05667,-4.09 13.07,-4.03v0c4.92,0.06 8.91667,1.49333 11.99,4.3c3.08,2.8 4.56,6.45 4.44,10.95v0l-8.11,-0.04c0.06,-2.43333 -0.70333,-4.41333 -2.29,-5.94c-1.59333,-1.52667 -3.70667,-2.32333 -6.34,-2.39v0c-2.82667,-0.06 -5.26,0.63 -7.3,2.07v0c-1.88667,1.35333 -2.98,3.12667 -3.28,5.32v0c-0.39333,2.81333 1.33333,4.86667 5.18,6.16v0l4.09,1.13c5.58,1.43333 9.54,3.30667 11.88,5.62c2.34,2.31333 3.42,5.17667 3.24,8.59v0c-0.18,3.03333 -1.17,5.67667 -2.97,7.93c-1.8,2.24667 -4.2,3.96333 -7.2,5.15c-3,1.18 -6.19333,1.72667 -9.58,1.64v0c-5.16,-0.06 -9.42333,-1.56667 -12.79,-4.52c-3.36,-2.96 -4.98,-6.76333 -4.86,-11.41v0l8.15,0.04c0,2.73333 0.87,4.92667 2.61,6.58c1.74,1.64667 4.12333,2.47 7.15,2.47v0c2.97333,0.06 5.54,-0.56333 7.7,-1.87c2.16,-1.30667 3.39,-3.1 3.69,-5.38zM293.949,220.04392v0c4.08667,0.06 7.58333,1.17 10.49,3.33c2.91333,2.16 5.06667,5.13667 6.46,8.93c1.39333,3.79333 1.86667,7.94333 1.42,12.45v0l-0.1,0.99c-0.56667,4.74 -1.97333,9.02 -4.22,12.84c-2.25333,3.82667 -5.16333,6.80667 -8.73,8.94c-3.57333,2.12667 -7.49,3.13 -11.75,3.01v0c-4.04667,-0.06 -7.53333,-1.17 -10.46,-3.33c-2.92667,-2.16 -5.06667,-5.1 -6.42,-8.82c-1.34667,-3.72 -1.82667,-7.81333 -1.44,-12.28v0c0.45333,-5.04667 1.82,-9.58 4.1,-13.6c2.28,-4.02 5.21333,-7.13 8.8,-9.33c3.58,-2.20667 7.53,-3.25 11.85,-3.13zM277.489,245.10392l-0.1,1.04c-0.20667,1.88667 -0.20667,3.85 0,5.89v0c0.3,3.54667 1.36,6.36667 3.18,8.46c1.81333,2.1 4.23333,3.19667 7.26,3.29v0c2.70667,0.08667 5.2,-0.58 7.48,-2c2.27333,-1.42667 4.19333,-3.58 5.76,-6.46c1.55333,-2.88 2.55667,-6.07333 3.01,-9.58v0c0.24,-2.76 0.28333,-5.08667 0.13,-6.98v0c-0.36,-3.63333 -1.45333,-6.49667 -3.28,-8.59c-1.82667,-2.1 -4.25667,-3.21333 -7.29,-3.34v0c-4.2,-0.08667 -7.77,1.56333 -10.71,4.95c-2.94,3.39333 -4.75333,7.83333 -5.44,13.32zM330.449,269.63392h-8.14l7.38,-42.25h-7.52l1.13,-6.44h7.47l0.81,-5.76c0.78,-4.88667 2.67,-8.71333 5.67,-11.48v0c3.14667,-2.87333 7.16667,-4.28333 12.06,-4.23v0c1.52667,0 3.46,0.25667 5.8,0.77v0l-0.99,6.79c-1.44,-0.29333 -2.89333,-0.47333 -4.36,-0.54v0c-2.82667,0 -5.11667,0.88 -6.87,2.64c-1.75333,1.75333 -2.84,4.08667 -3.26,7v0l-0.72,4.81h10.08l-1.12,6.44h-10.09zM363.259,209.15392h8.09l-2.07,11.79h8.87l-1.13,6.44h-8.82l-5.08,30.28c-0.08667,0.78 -0.1,1.5 -0.04,2.16v0c0.20667,2.34 1.48,3.51 3.82,3.51v0c0.99333,0 2.31333,-0.15 3.96,-0.45v0l-0.63,6.79c-1.94667,0.54667 -3.92667,0.82 -5.94,0.82v0c-3.24,-0.06667 -5.67,-1.26 -7.29,-3.58c-1.62,-2.32667 -2.25,-5.45667 -1.89,-9.39v0l4.95,-30.14h-8.6l1.13,-6.44h8.6z"></path></g></g></g></svg>