<svg xmlns="http://www.w3.org/2000/svg" xmlns:xlink="http://www.w3.org/1999/xlink" viewBox="0,0,256,256" width="512px" height="512px"><g transform="translate(64,64) scale(0.5,0.5)"><g fill="#818181" fill-rule="nonzero" stroke="none" stroke-width="1" stroke-linecap="butt" stroke-linejoin="miter" stroke-miterlimit="10" stroke-dasharray="" stroke-dashoffset="0" font-family="none" font-weight="none" font-size="none" text-anchor="none" style="mix-blend-mode: normal"><g transform="translate(-91.136,-105.472) scale(5.12,5.12)"><path d="M47,5v40l-16.381,-40zM17.762,36.579h7.238l3.429,8.421h7.238l-10.667,-26.199zM3,5v40l16.381,-40z"></path></g></g><g fill="#838383" fill-rule="nonzero" stroke="none" stroke-width="1" stroke-linecap="butt" stroke-linejoin="miter" stroke-miterlimit="10" stroke-dasharray="" stroke-dashoffset="0" font-family="none" font-weight="none" font-size="none" text-anchor="none" style="mix-blend-mode: normal"><g><path d="M154.595,268.453l-6.6,-18.05h-28.98l-6.51,18.05h-9.4l26.41,-69.16h7.98l26.46,69.16zM133.505,210.553l-11.73,32.34h23.51zM169.745,242.993v-0.66c0,-7.88667 1.87,-14.23 5.61,-19.03c3.73333,-4.79333 8.62333,-7.19 14.67,-7.19v0c6.02,0 10.78667,2.05667 14.3,6.17v0v-26.79h8.79v72.96h-8.07l-0.43,-5.51c-3.52,4.30667 -8.41333,6.46 -14.68,6.46v0c-5.95333,0 -10.80667,-2.43667 -14.56,-7.31c-3.75333,-4.88 -5.63,-11.24667 -5.63,-19.1zM178.535,243.323v0c0,5.82667 1.20333,10.38667 3.61,13.68c2.40667,3.29333 5.73,4.94 9.97,4.94v0c5.57333,0 9.64333,-2.5 12.21,-7.5v0v-23.61c-2.62667,-4.84667 -6.66333,-7.27 -12.11,-7.27v0c-4.30667,0 -7.66333,1.66333 -10.07,4.99c-2.40667,3.32667 -3.61,8.25 -3.61,14.77zM224.415,242.893v-0.61c0,-5.04 0.99,-9.57 2.97,-13.59c1.98,-4.02 4.73667,-7.12333 8.27,-9.31c3.52667,-2.18 7.55667,-3.27 12.09,-3.27v0c6.99333,0 12.65333,2.42 16.98,7.26c4.32,4.84667 6.48,11.29 6.48,19.33v0v0.62c0,5.00667 -0.95667,9.49667 -2.87,13.47c-1.91333,3.97333 -4.65333,7.07 -8.22,9.29c-3.56,2.21333 -7.65333,3.32 -12.28,3.32v0c-6.96667,0 -12.61,-2.42333 -16.93,-7.27c-4.32667,-4.84667 -6.49,-11.26 -6.49,-19.24zM233.255,243.323v0c0,5.7 1.32333,10.27667 3.97,13.73c2.64,3.45333 6.17667,5.18 10.61,5.18v0c4.46667,0 8.01333,-1.75 10.64,-5.25c2.62667,-3.5 3.94,-8.4 3.94,-14.7v0c0,-5.64 -1.33667,-10.21 -4.01,-13.71c-2.67333,-3.49333 -6.22667,-5.24 -10.66,-5.24v0c-4.34,0 -7.84,1.72333 -10.5,5.17c-2.66,3.45333 -3.99,8.39333 -3.99,14.82zM325.735,242.563v0.76c0,7.85333 -1.80333,14.16333 -5.41,18.93c-3.61333,4.76667 -8.46,7.15 -14.54,7.15v0c-6.48667,0 -11.50333,-2.29667 -15.05,-6.89v0l-0.43,5.94h-8.08v-72.96h8.79v27.22c3.54667,-4.4 8.44,-6.6 14.68,-6.6c6.24,0 11.14,2.35667 14.7,7.07c3.56,4.72 5.34,11.18 5.34,19.38zM316.955,242.333v0c0,-5.98667 -1.15667,-10.61 -3.47,-13.87c-2.31333,-3.26667 -5.64,-4.9 -9.98,-4.9v0c-5.79333,0 -9.95667,2.69333 -12.49,8.08v0v22.23c2.69333,5.38 6.89,8.07 12.59,8.07v0c4.21333,0 7.49,-1.63 9.83,-4.89c2.34667,-3.26 3.52,-8.16667 3.52,-14.72zM358.135,269.403v0c-6.96667,0 -12.63667,-2.28667 -17.01,-6.86c-4.36667,-4.58 -6.55,-10.7 -6.55,-18.36v0v-1.62c0,-5.1 0.97333,-9.65 2.92,-13.65c1.94667,-4.00667 4.67,-7.14333 8.17,-9.41c3.5,-2.26 7.29,-3.39 11.37,-3.39v0c6.68667,0 11.88333,2.2 15.59,6.6c3.7,4.4 5.55,10.7 5.55,18.9v0v3.66h-34.81c0.12667,5.06667 1.60667,9.16 4.44,12.28c2.83333,3.12 6.43333,4.68 10.8,4.68v0c3.10667,0 5.73667,-0.63333 7.89,-1.9c2.15333,-1.26667 4.03667,-2.94667 5.65,-5.04v0l5.37,4.18c-4.30667,6.62 -10.76667,9.93 -19.38,9.93zM357.035,223.333v0c-3.54667,0 -6.52,1.29 -8.92,3.87c-2.41333,2.58 -3.90333,6.19667 -4.47,10.85v0h25.75v-0.66c-0.25333,-4.46667 -1.46,-7.92667 -3.62,-10.38c-2.15333,-2.45333 -5.06667,-3.68 -8.74,-3.68z"></path></g></g></g></svg>