<svg xmlns="http://www.w3.org/2000/svg" xmlns:xlink="http://www.w3.org/1999/xlink" viewBox="0,0,256,256" width="48px" height="48px"><g transform=""><g fill="#ffffff" fill-rule="nonzero" stroke="none" stroke-width="1" stroke-linecap="butt" stroke-linejoin="miter" stroke-miterlimit="10" stroke-dasharray="" stroke-dashoffset="0" font-family="none" font-weight="none" font-size="none" text-anchor="none" style="mix-blend-mode: normal"><path d="M0,256v-256h256v256z" id="bgRectangle"></path></g><g fill="none" fill-rule="nonzero" stroke="none" stroke-width="1" stroke-linecap="butt" stroke-linejoin="miter" stroke-miterlimit="10" stroke-dasharray="" stroke-dashoffset="0" font-family="none" font-weight="none" font-size="none" text-anchor="none" style="mix-blend-mode: normal"><g transform="translate(-32,-32) scale(5.33333,5.33333)"><path transform="translate(28,28) rotate(-180)" d="M6,6h16v16h-16z" fill="#ff5722"></path><path transform="translate(68,28) rotate(-180)" d="M26,6h16v16h-16z" fill="#4caf50"></path><path transform="translate(68,68) rotate(-180)" d="M26,26h16v16h-16z" fill="#ffc107"></path><path transform="translate(28,68) rotate(-180)" d="M6,26h16v16h-16z" fill="#03a9f4"></path></g></g><g fill="#9d9b9b" fill-rule="nonzero" stroke="none" stroke-width="1" stroke-linecap="butt" stroke-linejoin="miter" stroke-miterlimit="10" stroke-dasharray="" stroke-dashoffset="0" font-family="none" font-weight="none" font-size="none" text-anchor="none" style="mix-blend-mode: normal"><g><path d="M79.74333,222.49267h4.94l5.31,24.71l13.92,-24.71h5.14l-5.27,30.34h-3.89l2.08,-12l2.48,-12.21l-13.75,24.21h-3l-5.42,-24.69l-1.87,13.08l-2.02,11.61h-3.92zM118.22333,230.29267l-3.92,22.54h-3.75l3.92,-22.54zM117.41333,222.06267v0c0.63333,-0.03333 1.16333,0.15667 1.59,0.57c0.42667,0.40667 0.64,0.94333 0.64,1.61v0c-0.02,0.65333 -0.23333,1.19 -0.64,1.61c-0.40667,0.41333 -0.93667,0.63333 -1.59,0.66c-0.65333,0.03333 -1.19,-0.15333 -1.61,-0.56c-0.41333,-0.4 -0.61333,-0.92667 -0.6,-1.58c0.01333,-0.65333 0.22,-1.19667 0.62,-1.63c0.40667,-0.42667 0.93667,-0.65333 1.59,-0.68zM129.99333,250.12267v0c1.34667,0.02667 2.56333,-0.36667 3.65,-1.18c1.08,-0.81333 1.78667,-1.88 2.12,-3.2v0l3.56,-0.02c-0.20667,1.42 -0.77,2.71333 -1.69,3.88c-0.92667,1.16667 -2.09,2.07667 -3.49,2.73c-1.40667,0.65333 -2.84667,0.95667 -4.32,0.91v0c-1.87333,-0.02667 -3.46,-0.51667 -4.76,-1.47c-1.3,-0.94667 -2.25333,-2.27 -2.86,-3.97c-0.61333,-1.70667 -0.82333,-3.62 -0.63,-5.74v0l0.11,-1.05c0.26,-2.16667 0.89,-4.10333 1.89,-5.81c1,-1.70667 2.30667,-3.03667 3.92,-3.99c1.61333,-0.94667 3.39,-1.39333 5.33,-1.34v0c2.36,0.05333 4.25,0.84333 5.67,2.37c1.42,1.53333 2.13,3.47333 2.13,5.82v0l-3.53,-0.02c-0.02667,-1.47333 -0.43667,-2.66667 -1.23,-3.58c-0.78667,-0.90667 -1.85333,-1.39 -3.2,-1.45v0c-1.96,-0.04 -3.59,0.69 -4.89,2.19c-1.3,1.5 -2.11,3.59667 -2.43,6.29v0l-0.06,0.55c-0.08,0.88667 -0.09333,1.80333 -0.04,2.75v0c0.1,1.62 0.55667,2.90333 1.37,3.85c0.82,0.94667 1.94667,1.44 3.38,1.48zM156.78333,230.14267l-0.41,3.58l-1.78,-0.18c-2.41333,0 -4.31333,1.09 -5.7,3.27v0l-2.77,16.02h-3.78l3.92,-22.54l3.65,-0.03l-0.57,2.63c1.6,-2.1 3.48333,-3.12 5.65,-3.06v0c0.46,0 1.05667,0.10333 1.79,0.31zM168.66333,229.87267v0c1.88667,0.02667 3.50333,0.54 4.85,1.54c1.34667,1 2.34333,2.38 2.99,4.14c0.64667,1.75333 0.86667,3.67333 0.66,5.76v0l-0.05,0.45c-0.26,2.2 -0.91,4.18333 -1.95,5.95c-1.04667,1.77333 -2.39667,3.15333 -4.05,4.14c-1.64667,0.98667 -3.45667,1.45 -5.43,1.39v0c-1.88,-0.02667 -3.49667,-0.54 -4.85,-1.54c-1.35333,-1 -2.34333,-2.36 -2.97,-4.08c-0.62,-1.72 -0.84,-3.61667 -0.66,-5.69v0c0.20667,-2.33333 0.83667,-4.43 1.89,-6.29c1.06,-1.86 2.42,-3.3 4.08,-4.32c1.66,-1.02 3.49,-1.50333 5.49,-1.45zM161.03333,241.47267l-0.04,0.48c-0.1,0.87333 -0.1,1.78333 0,2.73v0c0.14,1.64 0.63,2.94667 1.47,3.92c0.84,0.97333 1.96,1.48 3.36,1.52v0c1.25333,0.04 2.40667,-0.27 3.46,-0.93c1.05333,-0.66 1.94333,-1.65667 2.67,-2.99c0.72,-1.33333 1.18333,-2.81333 1.39,-4.44v0c0.11333,-1.27333 0.13667,-2.34667 0.07,-3.22v0c-0.16667,-1.68667 -0.67333,-3.01333 -1.52,-3.98c-0.85333,-0.97333 -1.98,-1.49 -3.38,-1.55v0c-1.94667,-0.04 -3.6,0.72667 -4.96,2.3c-1.36,1.56667 -2.2,3.62 -2.52,6.16zM193.91333,246.72267v0c0.20667,-1.55333 -0.65,-2.65 -2.57,-3.29v0l-3.91,-1.14c-3.30667,-1.14 -4.90333,-3.03 -4.79,-5.67v0c0.09333,-1.98667 0.99667,-3.61667 2.71,-4.89c1.72,-1.26667 3.74,-1.88667 6.06,-1.86v0c2.27333,0.02667 4.12333,0.69 5.55,1.99c1.42,1.3 2.10333,2.99 2.05,5.07v0l-3.75,-0.02c0.02667,-1.12667 -0.32667,-2.04333 -1.06,-2.75c-0.74,-0.70667 -1.72,-1.07333 -2.94,-1.1v0c-1.30667,-0.03333 -2.43,0.28333 -3.37,0.95v0c-0.88,0.62667 -1.39,1.44667 -1.53,2.46v0c-0.18,1.30667 0.62,2.26 2.4,2.86v0l1.9,0.52c2.58,0.66667 4.41333,1.53333 5.5,2.6c1.08,1.07333 1.58,2.4 1.5,3.98v0c-0.08667,1.40667 -0.54667,2.63 -1.38,3.67c-0.83333,1.04 -1.94333,1.83333 -3.33,2.38c-1.39333,0.55333 -2.87333,0.80667 -4.44,0.76v0c-2.38667,-0.02667 -4.36,-0.72333 -5.92,-2.09c-1.55333,-1.36667 -2.30333,-3.12667 -2.25,-5.28v0l3.77,0.02c0,1.26667 0.40333,2.28 1.21,3.04c0.80667,0.76667 1.91333,1.15 3.32,1.15v0c1.37333,0.02667 2.56,-0.26333 3.56,-0.87c1,-0.6 1.57,-1.43 1.71,-2.49zM214.01333,229.87267v0c1.88667,0.02667 3.50667,0.54 4.86,1.54c1.34667,1 2.34,2.38 2.98,4.14c0.64667,1.75333 0.86667,3.67333 0.66,5.76v0l-0.04,0.45c-0.26667,2.2 -0.92,4.18333 -1.96,5.95c-1.04,1.77333 -2.38667,3.15333 -4.04,4.14c-1.65333,0.98667 -3.46667,1.45 -5.44,1.39v0c-1.87333,-0.02667 -3.48667,-0.54 -4.84,-1.54c-1.35333,-1 -2.34333,-2.36 -2.97,-4.08c-0.62667,-1.72 -0.85,-3.61667 -0.67,-5.69v0c0.21333,-2.33333 0.84667,-4.43 1.9,-6.29c1.05333,-1.86 2.41,-3.3 4.07,-4.32c1.66,-1.02 3.49,-1.50333 5.49,-1.45zM206.39333,241.47267l-0.05,0.48c-0.09333,0.87333 -0.09333,1.78333 0,2.73v0c0.14,1.64 0.63,2.94667 1.47,3.92c0.84,0.97333 1.96333,1.48 3.37,1.52v0c1.24667,0.04 2.4,-0.27 3.46,-0.93c1.05333,-0.66 1.94,-1.65667 2.66,-2.99c0.72667,-1.33333 1.19333,-2.81333 1.4,-4.44v0c0.11333,-1.27333 0.13333,-2.34667 0.06,-3.22v0c-0.16667,-1.68667 -0.67333,-3.01333 -1.52,-3.98c-0.84667,-0.97333 -1.97,-1.49 -3.37,-1.55v0c-1.94667,-0.04 -3.6,0.72667 -4.96,2.3c-1.36,1.56667 -2.2,3.62 -2.52,6.16zM230.91333,252.83267h-3.77l3.41,-19.57h-3.48l0.52,-2.97h3.46l0.38,-2.67c0.36,-2.26667 1.23333,-4.03667 2.62,-5.31v0c1.46,-1.33333 3.32333,-1.98667 5.59,-1.96v0c0.70667,0 1.6,0.11667 2.68,0.35v0l-0.45,3.15c-0.66667,-0.14 -1.34333,-0.22333 -2.03,-0.25v0c-1.3,0 -2.35667,0.40667 -3.17,1.22c-0.81333,0.81333 -1.31667,1.89333 -1.51,3.24v0l-0.34,2.23h4.67l-0.52,2.97h-4.67zM246.09333,224.83267h3.75l-0.95,5.46h4.1l-0.52,2.97h-4.08l-2.36,14.03c-0.04,0.36 -0.04667,0.69333 -0.02,1v0c0.1,1.08 0.69,1.62 1.77,1.62v0c0.46,0 1.07333,-0.07 1.84,-0.21v0l-0.3,3.15c-0.9,0.24667 -1.81667,0.37 -2.75,0.37v0c-1.5,-0.02667 -2.62333,-0.57667 -3.37,-1.65c-0.75333,-1.08 -1.04667,-2.53 -0.88,-4.35v0l2.3,-13.96h-3.98l0.52,-2.97h3.98z"></path></g></g></g></svg>